<svg width="182" height="136" viewBox="0 0 182 136" fill="none" xmlns="http://www.w3.org/2000/svg">
<path d="M67.6892 135.017C45.376 135.017 28.6411 129.684 17.4845 119.019C6.45765 108.21 0.944214 91.2036 0.944214 68C0.944214 54.5966 3.21445 42.9227 7.75492 32.9783C12.2954 22.8898 19.4953 15.0351 29.3546 9.41434C39.2139 3.79358 51.9921 0.983196 67.6892 0.983196C80.0133 0.983196 91.2298 0.983232 99.4376 0.983214C107.645 0.983192 117.026 0.983214 120.543 0.983192L107.346 16.8235L100.173 25.3529H89.4135C89.4135 25.3529 76.0668 25.3529 67.8939 25.3529C58.9427 25.3529 51.8624 26.3487 46.2841 29.5194C40.8355 32.6901 36.814 37.5182 34.2194 44.0037C31.7546 50.345 30.5222 58.3438 30.5222 68C30.5222 77.6562 31.7546 85.655 34.2194 91.9963C36.814 98.3377 41.2247 103.094 47.4516 106.264C53.8083 109.435 62.5649 111.02 73.7215 111.02C84.8781 111.02 91.2298 111.02 99.4376 111.02H103.76L122.888 135.017C122.888 135.017 113.508 135.017 103.632 135.017C93.7557 135.017 82.6079 135.017 67.6892 135.017Z" fill="#1D284B"/>
<path d="M128.866 135.017L91.8044 87.4958L117.693 59.4706L107.346 25.3529L127.67 0.983177H139.212C152.726 0.983177 163.054 5.64443 170.34 12.53C177.76 19.4155 181.469 29.2744 181.469 42.1066C181.469 51.496 179.078 69.2185 170.34 76.5294C162.045 83.4703 158.754 83.8403 127.67 83.8403L170.34 135.017H128.866ZM156.363 42.1066C156.363 28.3981 161.145 25.3529 131.257 25.3529H107.346L117.693 59.4706C129.648 59.4706 121.279 59.4706 139.212 59.4706C157.145 59.4706 156.363 55.8151 156.363 42.1066Z" fill="#FA6613"/>
</svg>
